<mxfile host="app.diagrams.net" modified="2023-02-18T05:52:57.461Z" agent="5.0 (Macintosh; Intel Mac OS X 10_15_7) AppleWebKit/537.36 (KHTML, like Gecko) Chrome/109.0.0.0 Safari/537.36" etag="1ZvgXewE2fODdQ8tWh0Q" version="20.8.11" type="github">
  <diagram id="nkua_I_8SeS9SdFFttBP" name="第 1 页">
    <mxGraphModel dx="636" dy="411" grid="1" gridSize="10" guides="1" tooltips="1" connect="1" arrows="1" fold="1" page="1" pageScale="1" pageWidth="827" pageHeight="1169" math="0" shadow="0">
      <root>
        <mxCell id="0" />
        <mxCell id="1" parent="0" />
        <mxCell id="1DXGxm3bK07C1-r1qkHq-19" value="" style="rounded=0;whiteSpace=wrap;html=1;fontSize=15;" vertex="1" parent="1">
          <mxGeometry x="458.03000000000003" y="42.42" width="63" height="32.7" as="geometry" />
        </mxCell>
        <mxCell id="pZuCyEu0J8naMEDu9RK_-54" value="&lt;font color=&quot;#ffffff&quot; style=&quot;font-size: 15px;&quot;&gt;&lt;b style=&quot;font-size: 15px;&quot;&gt;Hash Table&lt;/b&gt;&lt;/font&gt;" style="rounded=0;whiteSpace=wrap;html=1;fillColor=#3D71FF;fontSize=15;" parent="1" vertex="1" diagramName="Rectangle" diagramCategory="general">
          <mxGeometry x="120" y="159.99823529411768" width="115.8176943699732" height="25.882352941176475" as="geometry" />
        </mxCell>
        <mxCell id="pZuCyEu0J8naMEDu9RK_-57" value="&lt;font color=&quot;#ffffff&quot; style=&quot;font-size: 15px;&quot;&gt;&lt;b style=&quot;font-size: 15px;&quot;&gt;Skiplist&lt;/b&gt;&lt;/font&gt;" style="rounded=0;whiteSpace=wrap;html=1;fillColor=#FF0000;fontSize=15;" parent="1" vertex="1" diagramName="Rectangle" diagramCategory="general">
          <mxGeometry x="338.7667560321716" y="157.11823529411768" width="102.9490616621984" height="25.882352941176475" as="geometry" />
        </mxCell>
        <mxCell id="pZuCyEu0J8naMEDu9RK_-58" value="&lt;b style=&quot;font-size: 15px;&quot;&gt;Key-Value Data&lt;/b&gt;" style="rounded=0;whiteSpace=wrap;html=1;fillColor=#FFFFCC;fontSize=15;" parent="1" vertex="1" diagramName="Rectangle" diagramCategory="general">
          <mxGeometry x="120" y="226.11411764705883" width="321.71581769437" height="25.882352941176475" as="geometry" />
        </mxCell>
        <mxCell id="pZuCyEu0J8naMEDu9RK_-52" style="edgeStyle=none;rounded=0;orthogonalLoop=1;jettySize=auto;html=1;exitX=0.5;exitY=1;exitDx=0;exitDy=0;entryX=0.181;entryY=0.04;entryDx=0;entryDy=0;entryPerimeter=0;fontSize=15;" parent="1" source="pZuCyEu0J8naMEDu9RK_-54" target="pZuCyEu0J8naMEDu9RK_-58" edge="1">
          <mxGeometry relative="1" as="geometry" />
        </mxCell>
        <mxCell id="pZuCyEu0J8naMEDu9RK_-53" value="index" style="edgeLabel;html=1;align=center;verticalAlign=middle;resizable=0;points=[];fontStyle=2;labelBackgroundColor=#ffffff;fontSize=15;" parent="pZuCyEu0J8naMEDu9RK_-52" vertex="1" connectable="0">
          <mxGeometry x="-0.2768" relative="1" as="geometry">
            <mxPoint as="offset" />
          </mxGeometry>
        </mxCell>
        <mxCell id="pZuCyEu0J8naMEDu9RK_-56" style="edgeStyle=none;rounded=0;orthogonalLoop=1;jettySize=auto;html=1;exitX=0.5;exitY=1;exitDx=0;exitDy=0;entryX=0.843;entryY=0.058;entryDx=0;entryDy=0;entryPerimeter=0;fontSize=15;" parent="1" source="pZuCyEu0J8naMEDu9RK_-57" target="pZuCyEu0J8naMEDu9RK_-58" edge="1">
          <mxGeometry relative="1" as="geometry" />
        </mxCell>
        <mxCell id="pZuCyEu0J8naMEDu9RK_-59" style="rounded=0;orthogonalLoop=1;jettySize=auto;html=1;exitX=0.5;exitY=1;exitDx=0;exitDy=0;entryX=1;entryY=0;entryDx=0;entryDy=0;fontSize=15;" parent="1" source="pZuCyEu0J8naMEDu9RK_-60" target="pZuCyEu0J8naMEDu9RK_-54" edge="1">
          <mxGeometry relative="1" as="geometry" />
        </mxCell>
        <mxCell id="pZuCyEu0J8naMEDu9RK_-60" value="&lt;b style=&quot;font-size: 15px;&quot;&gt;Client&lt;/b&gt;" style="rounded=0;whiteSpace=wrap;html=1;fillColor=#CCFFFF;fontSize=15;" parent="1" vertex="1" diagramName="Rectangle" diagramCategory="general">
          <mxGeometry x="242.2476943699732" y="49.24" width="77.2117962466488" height="25.882352941176475" as="geometry" />
        </mxCell>
        <mxCell id="pZuCyEu0J8naMEDu9RK_-50" style="edgeStyle=orthogonalEdgeStyle;rounded=0;orthogonalLoop=1;jettySize=auto;html=1;exitX=0.5;exitY=0;exitDx=0;exitDy=0;entryX=0;entryY=0.5;entryDx=0;entryDy=0;curved=1;fontSize=15;" parent="1" source="pZuCyEu0J8naMEDu9RK_-54" target="pZuCyEu0J8naMEDu9RK_-60" edge="1">
          <mxGeometry relative="1" as="geometry" />
        </mxCell>
        <mxCell id="pZuCyEu0J8naMEDu9RK_-51" value="&lt;b style=&quot;font-size: 15px;&quot;&gt;API:Get&lt;/b&gt;&lt;br style=&quot;font-size: 15px;&quot;&gt;Verb: read" style="edgeLabel;html=1;align=center;verticalAlign=middle;resizable=0;points=[];labelBackgroundColor=#ffffff;fontStyle=2;fontSize=15;" parent="pZuCyEu0J8naMEDu9RK_-50" vertex="1" connectable="0">
          <mxGeometry x="-0.3426" y="-6" relative="1" as="geometry">
            <mxPoint x="-6.02" y="16.249999999999996" as="offset" />
          </mxGeometry>
        </mxCell>
        <mxCell id="pZuCyEu0J8naMEDu9RK_-61" value="index" style="edgeLabel;html=1;align=center;verticalAlign=middle;resizable=0;points=[];fontStyle=2;labelBackgroundColor=#ffffff;fontSize=15;" parent="1" vertex="1" connectable="0">
          <mxGeometry x="235.8140260584673" y="205.99822807035991" as="geometry">
            <mxPoint x="152" y="-4" as="offset" />
          </mxGeometry>
        </mxCell>
        <mxCell id="pZuCyEu0J8naMEDu9RK_-55" style="edgeStyle=orthogonalEdgeStyle;curved=1;rounded=0;orthogonalLoop=1;jettySize=auto;html=1;exitX=0.5;exitY=0;exitDx=0;exitDy=0;entryX=1;entryY=0.5;entryDx=0;entryDy=0;fontSize=15;" parent="1" source="pZuCyEu0J8naMEDu9RK_-57" target="pZuCyEu0J8naMEDu9RK_-60" edge="1">
          <mxGeometry relative="1" as="geometry" />
        </mxCell>
        <mxCell id="pZuCyEu0J8naMEDu9RK_-62" style="rounded=0;orthogonalLoop=1;jettySize=auto;html=1;exitX=0.5;exitY=1;exitDx=0;exitDy=0;entryX=0;entryY=0;entryDx=0;entryDy=0;fontSize=15;" parent="1" source="pZuCyEu0J8naMEDu9RK_-60" target="pZuCyEu0J8naMEDu9RK_-57" edge="1">
          <mxGeometry relative="1" as="geometry">
            <mxPoint x="287.29222520107226" y="85.88235294117648" as="sourcePoint" />
            <mxPoint x="235.8176943699732" y="150.58823529411768" as="targetPoint" />
          </mxGeometry>
        </mxCell>
        <mxCell id="pZuCyEu0J8naMEDu9RK_-63" value="&lt;b style=&quot;font-size: 15px;&quot;&gt;API:Put&lt;/b&gt;&lt;br style=&quot;font-size: 15px;&quot;&gt;Verb:write" style="edgeLabel;html=1;align=center;verticalAlign=middle;resizable=0;points=[];labelBackgroundColor=#ffffff;fontStyle=2;fontSize=15;" parent="1" vertex="1" connectable="0">
          <mxGeometry x="274.42359249329763" y="137.64255754475698" as="geometry">
            <mxPoint x="3" y="-14" as="offset" />
          </mxGeometry>
        </mxCell>
        <mxCell id="pZuCyEu0J8naMEDu9RK_-64" value="&lt;b style=&quot;font-size: 15px;&quot;&gt;API:Scan&lt;/b&gt;&lt;br style=&quot;font-size: 15px;&quot;&gt;Verb:read" style="edgeLabel;html=1;align=center;verticalAlign=middle;resizable=0;points=[];labelBackgroundColor=#ffffff;fontStyle=2;fontSize=15;" parent="1" vertex="1" connectable="0">
          <mxGeometry x="377.372654155496" y="137.64255754475698" as="geometry">
            <mxPoint x="3" y="-14" as="offset" />
          </mxGeometry>
        </mxCell>
        <mxCell id="pZuCyEu0J8naMEDu9RK_-65" value="" style="endArrow=none;html=1;rounded=0;dashed=1;fontSize=15;" parent="1" edge="1">
          <mxGeometry width="50" height="50" relative="1" as="geometry">
            <mxPoint x="120" y="96.23529411764707" as="sourcePoint" />
            <mxPoint x="441.71581769437" y="96.23529411764707" as="targetPoint" />
          </mxGeometry>
        </mxCell>
        <mxCell id="pZuCyEu0J8naMEDu9RK_-70" value="" style="sketch=0;pointerEvents=1;shadow=0;dashed=0;html=1;strokeColor=none;fillColor=#000000;aspect=fixed;labelPosition=center;verticalLabelPosition=bottom;verticalAlign=top;align=center;outlineConnect=0;shape=mxgraph.vvd.cpu;fontSize=15;" parent="1" vertex="1">
          <mxGeometry x="463.0303485254692" y="46.97" width="23.592493297587136" height="23.592493297587136" as="geometry" />
        </mxCell>
        <mxCell id="pZuCyEu0J8naMEDu9RK_-82" value="&lt;i style=&quot;font-size: 15px;&quot;&gt;key-value store architecture&lt;/i&gt;" style="text;html=1;strokeColor=none;fillColor=none;align=center;verticalAlign=middle;whiteSpace=wrap;rounded=0;fontSize=15;" parent="1" vertex="1">
          <mxGeometry x="120" y="254.99764705882353" width="283.1099195710456" height="25.882352941176475" as="geometry" />
        </mxCell>
        <mxCell id="pZuCyEu0J8naMEDu9RK_-83" value="&lt;b&gt;memory nodes&lt;/b&gt;" style="text;html=1;strokeColor=none;fillColor=none;align=center;verticalAlign=middle;whiteSpace=wrap;rounded=0;fontSize=15;" parent="1" vertex="1">
          <mxGeometry x="453.99" y="232" width="154.42" height="23" as="geometry" />
        </mxCell>
        <mxCell id="1DXGxm3bK07C1-r1qkHq-20" value="" style="sketch=0;pointerEvents=1;shadow=0;dashed=0;html=1;strokeColor=none;fillColor=#000000;aspect=fixed;labelPosition=center;verticalLabelPosition=bottom;verticalAlign=top;align=center;outlineConnect=0;shape=mxgraph.vvd.cpu;fontSize=15;" vertex="1" parent="1">
          <mxGeometry x="493.1403485254693" y="46.97" width="23.592493297587136" height="23.592493297587136" as="geometry" />
        </mxCell>
        <mxCell id="1DXGxm3bK07C1-r1qkHq-21" value="" style="rounded=0;whiteSpace=wrap;html=1;fontSize=15;" vertex="1" parent="1">
          <mxGeometry x="538.92" y="42.42" width="63" height="32.7" as="geometry" />
        </mxCell>
        <mxCell id="1DXGxm3bK07C1-r1qkHq-22" value="" style="sketch=0;pointerEvents=1;shadow=0;dashed=0;html=1;strokeColor=none;fillColor=#000000;aspect=fixed;labelPosition=center;verticalLabelPosition=bottom;verticalAlign=top;align=center;outlineConnect=0;shape=mxgraph.vvd.cpu;fontSize=15;" vertex="1" parent="1">
          <mxGeometry x="543.9203485254692" y="46.96999999999999" width="23.592493297587136" height="23.592493297587136" as="geometry" />
        </mxCell>
        <mxCell id="1DXGxm3bK07C1-r1qkHq-23" value="" style="sketch=0;pointerEvents=1;shadow=0;dashed=0;html=1;strokeColor=none;fillColor=#000000;aspect=fixed;labelPosition=center;verticalLabelPosition=bottom;verticalAlign=top;align=center;outlineConnect=0;shape=mxgraph.vvd.cpu;fontSize=15;" vertex="1" parent="1">
          <mxGeometry x="574.0303485254692" y="46.96999999999999" width="23.592493297587136" height="23.592493297587136" as="geometry" />
        </mxCell>
        <mxCell id="1DXGxm3bK07C1-r1qkHq-24" value="&lt;b&gt;computer nodes&lt;/b&gt;" style="text;html=1;strokeColor=none;fillColor=none;align=center;verticalAlign=middle;whiteSpace=wrap;rounded=0;fontSize=15;" vertex="1" parent="1">
          <mxGeometry x="458.03" y="77" width="141.97" height="16" as="geometry" />
        </mxCell>
        <mxCell id="1DXGxm3bK07C1-r1qkHq-26" value="" style="group" vertex="1" connectable="0" parent="1">
          <mxGeometry x="453.99" y="96" width="155.01" height="134" as="geometry" />
        </mxCell>
        <mxCell id="pZuCyEu0J8naMEDu9RK_-68" value="" style="endArrow=none;html=1;rounded=0;dashed=1;fontSize=15;" parent="1DXGxm3bK07C1-r1qkHq-26" edge="1">
          <mxGeometry width="50" height="50" relative="1" as="geometry">
            <mxPoint y="0.20211161387633123" as="sourcePoint" />
            <mxPoint x="153.8899678434068" as="targetPoint" />
          </mxGeometry>
        </mxCell>
        <mxCell id="1DXGxm3bK07C1-r1qkHq-4" value="" style="group" vertex="1" connectable="0" parent="1DXGxm3bK07C1-r1qkHq-26">
          <mxGeometry x="2.115610337915739" y="7.2755128205128194" width="70.00200978707498" height="59.26923076923077" as="geometry" />
        </mxCell>
        <mxCell id="1DXGxm3bK07C1-r1qkHq-3" value="" style="rounded=0;whiteSpace=wrap;html=1;fontSize=15;" vertex="1" parent="1DXGxm3bK07C1-r1qkHq-4">
          <mxGeometry width="70.00200978707498" height="59.26923076923077" as="geometry" />
        </mxCell>
        <mxCell id="pZuCyEu0J8naMEDu9RK_-75" value="" style="sketch=0;pointerEvents=1;shadow=0;dashed=0;html=1;strokeColor=none;fillColor=#1A1A1A;aspect=fixed;labelPosition=center;verticalLabelPosition=bottom;verticalAlign=top;align=center;outlineConnect=0;shape=mxgraph.vvd.memory;fontSize=15;" parent="1DXGxm3bK07C1-r1qkHq-4" vertex="1">
          <mxGeometry x="9.664637153006929" y="6.16339366515838" width="50.66336701725442" height="19.252079466556683" as="geometry" />
        </mxCell>
        <mxCell id="1DXGxm3bK07C1-r1qkHq-2" value="" style="sketch=0;pointerEvents=1;shadow=0;dashed=0;html=1;strokeColor=none;fillColor=#1A1A1A;aspect=fixed;labelPosition=center;verticalLabelPosition=bottom;verticalAlign=top;align=center;outlineConnect=0;shape=mxgraph.vvd.memory;fontSize=15;" vertex="1" parent="1DXGxm3bK07C1-r1qkHq-4">
          <mxGeometry x="9.664637153006929" y="33.49595776772247" width="50.66336701725442" height="19.252079466556683" as="geometry" />
        </mxCell>
        <mxCell id="1DXGxm3bK07C1-r1qkHq-6" value="" style="group" vertex="1" connectable="0" parent="1DXGxm3bK07C1-r1qkHq-26">
          <mxGeometry x="84.00793279043715" y="6.871794871794871" width="70.00200978707498" height="59.26923076923077" as="geometry" />
        </mxCell>
        <mxCell id="1DXGxm3bK07C1-r1qkHq-7" value="" style="rounded=0;whiteSpace=wrap;html=1;fontSize=15;" vertex="1" parent="1DXGxm3bK07C1-r1qkHq-6">
          <mxGeometry width="70.00200978707498" height="59.26923076923077" as="geometry" />
        </mxCell>
        <mxCell id="1DXGxm3bK07C1-r1qkHq-8" value="" style="sketch=0;pointerEvents=1;shadow=0;dashed=0;html=1;strokeColor=none;fillColor=#1A1A1A;aspect=fixed;labelPosition=center;verticalLabelPosition=bottom;verticalAlign=top;align=center;outlineConnect=0;shape=mxgraph.vvd.memory;fontSize=15;" vertex="1" parent="1DXGxm3bK07C1-r1qkHq-6">
          <mxGeometry x="9.664637153006929" y="6.16339366515838" width="50.66336701725442" height="19.252079466556683" as="geometry" />
        </mxCell>
        <mxCell id="1DXGxm3bK07C1-r1qkHq-9" value="" style="sketch=0;pointerEvents=1;shadow=0;dashed=0;html=1;strokeColor=none;fillColor=#1A1A1A;aspect=fixed;labelPosition=center;verticalLabelPosition=bottom;verticalAlign=top;align=center;outlineConnect=0;shape=mxgraph.vvd.memory;fontSize=15;" vertex="1" parent="1DXGxm3bK07C1-r1qkHq-6">
          <mxGeometry x="9.664637153006929" y="33.49595776772247" width="50.66336701725442" height="19.252079466556683" as="geometry" />
        </mxCell>
        <mxCell id="1DXGxm3bK07C1-r1qkHq-10" value="" style="group" vertex="1" connectable="0" parent="1DXGxm3bK07C1-r1qkHq-26">
          <mxGeometry x="2.0056071796789503" y="74.73076923076923" width="70.00200978707498" height="59.26923076923077" as="geometry" />
        </mxCell>
        <mxCell id="1DXGxm3bK07C1-r1qkHq-11" value="" style="rounded=0;whiteSpace=wrap;html=1;fontSize=15;" vertex="1" parent="1DXGxm3bK07C1-r1qkHq-10">
          <mxGeometry width="70.00200978707498" height="59.26923076923077" as="geometry" />
        </mxCell>
        <mxCell id="1DXGxm3bK07C1-r1qkHq-12" value="" style="sketch=0;pointerEvents=1;shadow=0;dashed=0;html=1;strokeColor=none;fillColor=#1A1A1A;aspect=fixed;labelPosition=center;verticalLabelPosition=bottom;verticalAlign=top;align=center;outlineConnect=0;shape=mxgraph.vvd.memory;fontSize=15;" vertex="1" parent="1DXGxm3bK07C1-r1qkHq-10">
          <mxGeometry x="9.664637153006929" y="6.16339366515838" width="50.66336701725442" height="19.252079466556683" as="geometry" />
        </mxCell>
        <mxCell id="1DXGxm3bK07C1-r1qkHq-13" value="" style="sketch=0;pointerEvents=1;shadow=0;dashed=0;html=1;strokeColor=none;fillColor=#1A1A1A;aspect=fixed;labelPosition=center;verticalLabelPosition=bottom;verticalAlign=top;align=center;outlineConnect=0;shape=mxgraph.vvd.memory;fontSize=15;" vertex="1" parent="1DXGxm3bK07C1-r1qkHq-10">
          <mxGeometry x="9.664637153006929" y="33.49595776772247" width="50.66336701725442" height="19.252079466556683" as="geometry" />
        </mxCell>
        <mxCell id="1DXGxm3bK07C1-r1qkHq-14" value="" style="group" vertex="1" connectable="0" parent="1DXGxm3bK07C1-r1qkHq-26">
          <mxGeometry x="85.00799021292501" y="74.73076923076923" width="70.00200978707498" height="59.26923076923077" as="geometry" />
        </mxCell>
        <mxCell id="1DXGxm3bK07C1-r1qkHq-15" value="" style="rounded=0;whiteSpace=wrap;html=1;fontSize=15;" vertex="1" parent="1DXGxm3bK07C1-r1qkHq-14">
          <mxGeometry width="70.00200978707498" height="59.26923076923077" as="geometry" />
        </mxCell>
        <mxCell id="1DXGxm3bK07C1-r1qkHq-16" value="" style="sketch=0;pointerEvents=1;shadow=0;dashed=0;html=1;strokeColor=none;fillColor=#1A1A1A;aspect=fixed;labelPosition=center;verticalLabelPosition=bottom;verticalAlign=top;align=center;outlineConnect=0;shape=mxgraph.vvd.memory;fontSize=15;" vertex="1" parent="1DXGxm3bK07C1-r1qkHq-14">
          <mxGeometry x="9.664637153006929" y="6.16339366515838" width="50.66336701725442" height="19.252079466556683" as="geometry" />
        </mxCell>
        <mxCell id="1DXGxm3bK07C1-r1qkHq-17" value="" style="sketch=0;pointerEvents=1;shadow=0;dashed=0;html=1;strokeColor=none;fillColor=#1A1A1A;aspect=fixed;labelPosition=center;verticalLabelPosition=bottom;verticalAlign=top;align=center;outlineConnect=0;shape=mxgraph.vvd.memory;fontSize=15;" vertex="1" parent="1DXGxm3bK07C1-r1qkHq-14">
          <mxGeometry x="9.664637153006929" y="33.49595776772247" width="50.66336701725442" height="19.252079466556683" as="geometry" />
        </mxCell>
        <mxCell id="1DXGxm3bK07C1-r1qkHq-27" value="&lt;i&gt;hardware architecture&lt;/i&gt;" style="text;html=1;strokeColor=none;fillColor=none;align=center;verticalAlign=middle;whiteSpace=wrap;rounded=0;fontSize=15;" vertex="1" parent="1">
          <mxGeometry x="440" y="255" width="169" height="25.88" as="geometry" />
        </mxCell>
      </root>
    </mxGraphModel>
  </diagram>
</mxfile>
